<?xml version="1.0" encoding="UTF-8" standalone="no"?>
<!-- Created with Inkscape (http://www.inkscape.org/) -->

<svg
   xmlns:dc="http://purl.org/dc/elements/1.1/"
   xmlns:cc="http://creativecommons.org/ns#"
   xmlns:rdf="http://www.w3.org/1999/02/22-rdf-syntax-ns#"
   xmlns:svg="http://www.w3.org/2000/svg"
   xmlns="http://www.w3.org/2000/svg"
   xmlns:xlink="http://www.w3.org/1999/xlink"
   xmlns:sodipodi="http://sodipodi.sourceforge.net/DTD/sodipodi-0.dtd"
   xmlns:inkscape="http://www.inkscape.org/namespaces/inkscape"
   version="1.1"
   width="500"
   height="493.87268"
   id="svg2"
   inkscape:version="0.92.2 (5c3e80d, 2017-08-06)"
   sodipodi:docname="Taipei_Metro_Line_BR.svg">
  <sodipodi:namedview
     pagecolor="#ffffff"
     bordercolor="#666666"
     borderopacity="1"
     objecttolerance="10"
     gridtolerance="10"
     guidetolerance="10"
     inkscape:pageopacity="0"
     inkscape:pageshadow="2"
     inkscape:window-width="1366"
     inkscape:window-height="706"
     id="namedview42"
     showgrid="false"
     fit-margin-top="0"
     fit-margin-left="0"
     fit-margin-right="0"
     fit-margin-bottom="0"
     inkscape:zoom="0.67579074"
     inkscape:cx="331.24428"
     inkscape:cy="284.96967"
     inkscape:window-x="-8"
     inkscape:window-y="-8"
     inkscape:window-maximized="1"
     inkscape:current-layer="svg2" />
  <defs
     id="defs4">
    <clipPath
       id="SVGID_26_">
      <use
         id="use5467"
         style="overflow:visible"
         x="0"
         y="0"
         width="1700.79"
         height="2381.1001"
         xlink:href="#SVGID_25_" />
    </clipPath>
    <clipPath
       id="clipPath6312">
      <use
         id="use6314"
         style="overflow:visible"
         x="0"
         y="0"
         width="1700.79"
         height="2381.1001"
         xlink:href="#SVGID_25_" />
    </clipPath>
    <clipPath
       id="clipPath6316">
      <use
         id="use6318"
         style="overflow:visible"
         x="0"
         y="0"
         width="1700.79"
         height="2381.1001"
         xlink:href="#SVGID_25_" />
    </clipPath>
    <clipPath
       id="SVGID_26_-1">
      <use
         id="use5467-7"
         style="overflow:visible"
         x="0"
         y="0"
         width="1700.79"
         height="2381.1001"
         xlink:href="#SVGID_25_" />
    </clipPath>
    <clipPath
       id="clipPath6335">
      <use
         id="use6337"
         style="overflow:visible"
         x="0"
         y="0"
         width="1700.79"
         height="2381.1001"
         xlink:href="#SVGID_25_" />
    </clipPath>
    <clipPath
       id="clipPath6339">
      <use
         id="use6341"
         style="overflow:visible"
         x="0"
         y="0"
         width="1700.79"
         height="2381.1001"
         xlink:href="#SVGID_25_" />
    </clipPath>
    <clipPath
       id="SVGID_26_-4">
      <use
         id="use5467-8"
         style="overflow:visible"
         x="0"
         y="0"
         width="1700.79"
         height="2381.1001"
         xlink:href="#SVGID_25_" />
    </clipPath>
    <clipPath
       id="clipPath6335-8">
      <use
         id="use6337-2"
         style="overflow:visible"
         x="0"
         y="0"
         width="1700.79"
         height="2381.1001"
         xlink:href="#SVGID_25_" />
    </clipPath>
    <clipPath
       id="clipPath6339-4">
      <use
         id="use6341-5"
         style="overflow:visible"
         x="0"
         y="0"
         width="1700.79"
         height="2381.1001"
         xlink:href="#SVGID_25_" />
    </clipPath>
    <clipPath
       id="SVGID_26_-11">
      <use
         id="use5467-5"
         style="overflow:visible"
         x="0"
         y="0"
         width="1700.79"
         height="2381.1001"
         xlink:href="#SVGID_25_" />
    </clipPath>
    <clipPath
       id="clipPath6358">
      <use
         id="use6360"
         style="overflow:visible"
         x="0"
         y="0"
         width="1700.79"
         height="2381.1001"
         xlink:href="#SVGID_25_" />
    </clipPath>
    <clipPath
       id="clipPath6362">
      <use
         id="use6364"
         style="overflow:visible"
         x="0"
         y="0"
         width="1700.79"
         height="2381.1001"
         xlink:href="#SVGID_25_" />
    </clipPath>
    <clipPath
       id="SVGID_26_-17">
      <use
         id="use5467-4"
         style="overflow:visible"
         x="0"
         y="0"
         width="1700.79"
         height="2381.1001"
         xlink:href="#SVGID_25_" />
    </clipPath>
    <clipPath
       id="clipPath6404">
      <use
         id="use6406"
         style="overflow:visible"
         x="0"
         y="0"
         width="1700.79"
         height="2381.1001"
         xlink:href="#SVGID_25_" />
    </clipPath>
    <clipPath
       id="clipPath6408">
      <use
         id="use6410"
         style="overflow:visible"
         x="0"
         y="0"
         width="1700.79"
         height="2381.1001"
         xlink:href="#SVGID_25_" />
    </clipPath>
  </defs>
  <metadata
     id="metadata7">
    <rdf:RDF>
      <cc:Work
         rdf:about="">
        <dc:format>image/svg+xml</dc:format>
        <dc:type
           rdf:resource="http://purl.org/dc/dcmitype/StillImage" />
        <dc:title></dc:title>
      </cc:Work>
    </rdf:RDF>
  </metadata>
  <path
     d="m 624.782,71.001 c -1.722,0 -3.124,-1.383 -3.124,-3.083 v -8.104 c 0,-1.701 1.402,-3.084 3.124,-3.084 h 8.211 c 1.722,0 3.123,1.383 3.123,3.084 v 8.104 c 0,1.701 -1.401,3.083 -3.123,3.083 h -8.211 z"
     transform="translate(-441.81843,-1.2654037)"
     clip-path="url(#SVGID_26_-17)"
     id="path5819"
     style="fill:#a1662c"
     inkscape:connector-curvature="0" />
  <path
     d="m 623.717,60.771 h 2.743 c 0.506,0 0.912,0.126 1.217,0.381 0.306,0.255 0.459,0.639 0.459,1.153 0,0.312 -0.07,0.579 -0.21,0.803 -0.139,0.222 -0.338,0.394 -0.597,0.515 v 0.018 c 0.348,0.081 0.612,0.262 0.791,0.542 0.179,0.28 0.269,0.631 0.269,1.053 0,0.243 -0.04,0.47 -0.119,0.681 -0.079,0.21 -0.203,0.393 -0.371,0.545 -0.169,0.153 -0.385,0.274 -0.648,0.364 -0.264,0.09 -0.578,0.135 -0.941,0.135 h -2.593 v -6.19 z m 0.988,2.592 h 1.613 c 0.237,0 0.434,-0.074 0.593,-0.221 0.158,-0.148 0.237,-0.36 0.237,-0.638 0,-0.312 -0.071,-0.531 -0.214,-0.658 -0.142,-0.127 -0.348,-0.191 -0.616,-0.191 h -1.613 v 1.708 z m 0,2.714 h 1.747 c 0.3,0 0.534,-0.085 0.7,-0.256 0.166,-0.17 0.249,-0.411 0.249,-0.723 0,-0.307 -0.083,-0.543 -0.249,-0.707 -0.166,-0.165 -0.4,-0.248 -0.7,-0.248 h -1.747 v 1.934 z"
     transform="translate(-441.81843,-1.2654037)"
     clip-path="url(#SVGID_26_-17)"
     id="path5821"
     style="fill:#ffffff"
     inkscape:connector-curvature="0" />
  <path
     d="m 629.282,60.77 h 2.695 c 0.622,0 1.089,0.148 1.4,0.442 0.31,0.295 0.466,0.706 0.466,1.232 0,0.294 -0.04,0.539 -0.118,0.732 -0.08,0.193 -0.172,0.349 -0.277,0.468 -0.106,0.119 -0.21,0.205 -0.313,0.255 -0.103,0.053 -0.177,0.087 -0.225,0.104 v 0.018 c 0.084,0.012 0.175,0.041 0.273,0.087 0.097,0.046 0.188,0.121 0.273,0.221 0.084,0.101 0.154,0.233 0.209,0.395 0.055,0.162 0.083,0.364 0.083,0.606 0,0.364 0.025,0.696 0.075,0.993 0.05,0.298 0.128,0.51 0.233,0.638 h -1.059 c -0.074,-0.134 -0.117,-0.28 -0.13,-0.442 -0.014,-0.162 -0.02,-0.318 -0.02,-0.469 0,-0.282 -0.016,-0.527 -0.047,-0.732 -0.032,-0.206 -0.09,-0.375 -0.174,-0.512 -0.085,-0.136 -0.199,-0.236 -0.344,-0.299 -0.145,-0.063 -0.331,-0.096 -0.558,-0.096 h -1.454 v 2.55 h -0.988 V 60.77 z m 0.989,2.818 h 1.62 c 0.317,0 0.556,-0.082 0.72,-0.247 0.163,-0.165 0.245,-0.412 0.245,-0.741 0,-0.196 -0.027,-0.357 -0.079,-0.481 -0.053,-0.125 -0.125,-0.221 -0.218,-0.29 -0.092,-0.069 -0.197,-0.116 -0.316,-0.14 -0.118,-0.022 -0.241,-0.034 -0.367,-0.034 h -1.605 v 1.933 z"
     transform="translate(-441.81843,-1.2654037)"
     clip-path="url(#SVGID_26_-17)"
     id="path5823"
     style="fill:#ffffff"
     inkscape:connector-curvature="0" />
  <g
     id="g854">
    <path
       d="M 107.84357,493.87267 C 49.019939,493.87267 4.1873648e-4,446.07853 4.1873648e-4,387.25501 V 106.6177 C 4.1873648e-4,47.794137 49.019939,7.402881e-7 107.84357,7.402881e-7 h 284.3137 C 452.20629,7.402881e-7 500.00042,47.794137 500.00042,106.6177 v 280.63731 c 0,58.82352 -47.79413,106.61766 -107.84315,106.61766 z"
       id="path3121"
       style="fill:#c48c31;fill-opacity:1;fill-rule:nonzero;stroke:none;stroke-width:34.58606339"
       inkscape:connector-curvature="0" />
    <path
       d="M 71.078931,139.70591 H 166.6672 c 17.15677,0 30.63703,4.90199 41.66653,13.4804 11.02949,8.57845 15.93137,22.05882 15.93137,40.44118 0,9.80393 -2.45215,19.60787 -7.35299,26.9608 -4.90189,8.57845 -12.25488,13.4804 -20.83326,18.38236 v 0 c 12.25488,3.67646 20.83326,9.80393 26.96087,19.60784 6.12727,9.80394 9.80377,20.83333 9.80377,35.53922 0,8.57845 -1.22435,17.15687 -3.6765,24.50983 -3.6765,6.12744 -7.353,13.48037 -13.48027,18.38235 -6.12761,4.90196 -13.48026,9.80391 -22.05899,12.25488 -9.80376,3.6765 -19.60788,4.90199 -33.08814,4.90199 H 71.078931 Z m 34.313529,89.46083 h 56.37251 c 7.353,0 14.706,-2.45111 19.60788,-7.35296 6.12761,-4.90195 8.57838,-12.25492 8.57838,-22.05882 0,-11.02943 -2.45215,-18.38235 -7.35265,-22.05882 -4.90223,-4.90198 -12.25488,-7.35296 -20.83361,-7.35296 h -56.37251 z m 0,94.36275 h 60.04901 c 11.0295,0 18.3825,-2.45111 24.50976,-8.57845 6.12762,-6.12744 8.57873,-14.70586 8.57873,-25.73528 0,-9.80394 -2.45215,-18.38236 -8.57873,-23.28431 -6.12726,-6.12747 -13.48026,-8.57845 -24.50976,-8.57845 h -60.04901 z"
       id="path3123"
       style="fill:#ffffff;fill-opacity:1;fill-rule:nonzero;stroke:none;stroke-width:34.58606339"
       inkscape:connector-curvature="0" />
    <path
       d="m 263.48086,139.70591 h 93.13716 c 22.05899,0 37.99037,4.90199 49.01952,15.93138 11.02949,9.80394 15.93138,24.50983 15.93138,42.89218 0,9.80391 -1.22435,18.38236 -3.67616,24.5098 -3.6765,7.35296 -6.12761,12.25491 -9.80411,15.93138 -3.6765,4.90195 -7.353,7.35296 -11.02949,9.80393 -3.6765,1.22539 -6.12727,2.45112 -7.353,3.67647 v 0 c 2.45215,0 6.12761,1.22538 8.57873,3.67646 3.67649,1.22539 7.35265,3.67647 9.80376,7.35293 2.45215,3.6765 4.90188,7.35296 7.353,13.4804 1.22434,4.90199 2.45215,12.25492 2.45215,20.83333 0,12.25492 1.22435,24.50983 2.45215,34.31374 2.45215,9.80394 4.90188,17.15686 8.57838,22.05885 h -36.76464 c -2.45215,-4.90199 -3.6765,-9.80394 -4.90188,-14.70589 0,-6.12747 0,-11.02943 0,-17.15687 0,-9.80394 -1.22435,-18.38235 -1.22435,-24.50983 -1.22434,-7.35292 -3.67649,-13.48036 -6.12761,-18.38235 -3.6765,-4.90195 -7.353,-7.35293 -12.25488,-9.8039 -4.90188,-2.45112 -11.0295,-3.67647 -19.60788,-3.67647 h -50.24525 v 88.23531 H 263.48432 V 139.70591 Z m 34.31352,98.03925 h 56.37287 c 11.02915,0 19.60788,-2.45112 24.50976,-8.57842 6.12727,-6.12747 8.57838,-14.70589 8.57838,-25.73532 0,-7.35292 -1.22435,-12.25491 -2.45215,-17.15686 -2.45215,-3.67647 -4.90189,-7.35293 -7.353,-9.80391 -3.67615,-2.45111 -7.35265,-3.67649 -11.02915,-4.90198 -4.90223,0 -8.57838,-1.22539 -13.48061,-1.22539 h -55.14713 v 67.40198 z"
       id="path3125"
       style="fill:#ffffff;fill-opacity:1;fill-rule:nonzero;stroke:none;stroke-width:34.58606339"
       inkscape:connector-curvature="0" />
  </g>
</svg>
