<?xml version="1.0" encoding="UTF-8" standalone="no"?>
<!-- Created with Inkscape (http://www.inkscape.org/) -->

<svg
   xmlns:dc="http://purl.org/dc/elements/1.1/"
   xmlns:cc="http://creativecommons.org/ns#"
   xmlns:rdf="http://www.w3.org/1999/02/22-rdf-syntax-ns#"
   xmlns:svg="http://www.w3.org/2000/svg"
   xmlns="http://www.w3.org/2000/svg"
   xmlns:xlink="http://www.w3.org/1999/xlink"
   xmlns:sodipodi="http://sodipodi.sourceforge.net/DTD/sodipodi-0.dtd"
   xmlns:inkscape="http://www.inkscape.org/namespaces/inkscape"
   version="1.1"
   width="500"
   height="493.87241"
   id="svg2"
   inkscape:version="0.92.2 (5c3e80d, 2017-08-06)"
   sodipodi:docname="Taipei_Metro_Line_BL.svg">
  <sodipodi:namedview
     pagecolor="#ffffff"
     bordercolor="#666666"
     borderopacity="1"
     objecttolerance="10"
     gridtolerance="10"
     guidetolerance="10"
     inkscape:pageopacity="0"
     inkscape:pageshadow="2"
     inkscape:window-width="1366"
     inkscape:window-height="706"
     id="namedview46"
     showgrid="false"
     fit-margin-top="0"
     fit-margin-left="0"
     fit-margin-right="0"
     fit-margin-bottom="0"
     inkscape:zoom="0.44851479"
     inkscape:cx="326.14039"
     inkscape:cy="185.09796"
     inkscape:window-x="-8"
     inkscape:window-y="-8"
     inkscape:window-maximized="1"
     inkscape:current-layer="svg2" />
  <defs
     id="defs4">
    <clipPath
       id="SVGID_26_">
      <use
         id="use5467"
         style="overflow:visible"
         x="0"
         y="0"
         width="1700.79"
         height="2381.1001"
         xlink:href="#SVGID_25_" />
    </clipPath>
    <clipPath
       id="clipPath6312">
      <use
         id="use6314"
         style="overflow:visible"
         x="0"
         y="0"
         width="1700.79"
         height="2381.1001"
         xlink:href="#SVGID_25_" />
    </clipPath>
    <clipPath
       id="clipPath6316">
      <use
         id="use6318"
         style="overflow:visible"
         x="0"
         y="0"
         width="1700.79"
         height="2381.1001"
         xlink:href="#SVGID_25_" />
    </clipPath>
    <clipPath
       id="SVGID_26_-1">
      <use
         id="use5467-7"
         style="overflow:visible"
         x="0"
         y="0"
         width="1700.79"
         height="2381.1001"
         xlink:href="#SVGID_25_" />
    </clipPath>
    <clipPath
       id="clipPath6335">
      <use
         id="use6337"
         style="overflow:visible"
         x="0"
         y="0"
         width="1700.79"
         height="2381.1001"
         xlink:href="#SVGID_25_" />
    </clipPath>
    <clipPath
       id="clipPath6339">
      <use
         id="use6341"
         style="overflow:visible"
         x="0"
         y="0"
         width="1700.79"
         height="2381.1001"
         xlink:href="#SVGID_25_" />
    </clipPath>
    <clipPath
       id="SVGID_26_-4">
      <use
         id="use5467-8"
         style="overflow:visible"
         x="0"
         y="0"
         width="1700.79"
         height="2381.1001"
         xlink:href="#SVGID_25_" />
    </clipPath>
    <clipPath
       id="clipPath6335-8">
      <use
         id="use6337-2"
         style="overflow:visible"
         x="0"
         y="0"
         width="1700.79"
         height="2381.1001"
         xlink:href="#SVGID_25_" />
    </clipPath>
    <clipPath
       id="clipPath6339-4">
      <use
         id="use6341-5"
         style="overflow:visible"
         x="0"
         y="0"
         width="1700.79"
         height="2381.1001"
         xlink:href="#SVGID_25_" />
    </clipPath>
    <clipPath
       id="SVGID_26_-11">
      <use
         id="use5467-5"
         style="overflow:visible"
         x="0"
         y="0"
         width="1700.79"
         height="2381.1001"
         xlink:href="#SVGID_25_" />
    </clipPath>
    <clipPath
       id="clipPath6358">
      <use
         id="use6360"
         style="overflow:visible"
         x="0"
         y="0"
         width="1700.79"
         height="2381.1001"
         xlink:href="#SVGID_25_" />
    </clipPath>
    <clipPath
       id="clipPath6362">
      <use
         id="use6364"
         style="overflow:visible"
         x="0"
         y="0"
         width="1700.79"
         height="2381.1001"
         xlink:href="#SVGID_25_" />
    </clipPath>
  </defs>
  <metadata
     id="metadata7">
    <rdf:RDF>
      <cc:Work
         rdf:about="">
        <dc:format>image/svg+xml</dc:format>
        <dc:type
           rdf:resource="http://purl.org/dc/dcmitype/StillImage" />
        <dc:title />
      </cc:Work>
    </rdf:RDF>
  </metadata>
  <path
     inkscape:connector-curvature="0"
     style="fill:#005cb9"
     id="path6131"
     clip-path="url(#SVGID_26_)"
     transform="matrix(34.586064,0,0,34.586064,-17068.038,-12695.051)"
     d="m 624.782,200.899 c -1.722,0 -3.124,-1.383 -3.124,-3.084 v -8.104 c 0,-1.701 1.402,-3.084 3.124,-3.084 h 8.211 c 1.722,0 3.123,1.383 3.123,3.084 v 8.104 c 0,1.701 -1.401,3.084 -3.123,3.084 z" />
  <path
     inkscape:connector-curvature="0"
     style="fill:#ffffff"
     id="path6133"
     clip-path="url(#SVGID_26_)"
     transform="matrix(34.586064,0,0,34.586064,-17068.038,-12695.051)"
     d="m 624.176,190.668 h 2.743 c 0.506,0 0.912,0.127 1.217,0.381 0.306,0.255 0.459,0.639 0.459,1.153 0,0.313 -0.07,0.58 -0.21,0.802 -0.139,0.222 -0.338,0.394 -0.597,0.515 v 0.018 c 0.348,0.081 0.612,0.262 0.791,0.542 0.179,0.28 0.269,0.632 0.269,1.054 0,0.242 -0.04,0.47 -0.119,0.681 -0.079,0.21 -0.203,0.393 -0.371,0.546 -0.169,0.153 -0.385,0.274 -0.648,0.364 -0.264,0.09 -0.578,0.134 -0.941,0.134 h -2.593 z m 0.988,2.592 h 1.613 c 0.237,0 0.434,-0.074 0.593,-0.221 0.158,-0.147 0.237,-0.36 0.237,-0.638 0,-0.312 -0.072,-0.531 -0.214,-0.658 -0.142,-0.128 -0.348,-0.192 -0.616,-0.192 h -1.613 z m 0,2.714 h 1.747 c 0.3,0 0.534,-0.085 0.7,-0.256 0.166,-0.171 0.249,-0.412 0.249,-0.724 0,-0.307 -0.083,-0.542 -0.249,-0.707 -0.166,-0.165 -0.4,-0.248 -0.7,-0.248 h -1.747 z" />
  <polygon
     style="fill:#ffffff"
     id="polygon6135"
     clip-path="url(#SVGID_26_)"
     transform="matrix(34.586064,0,0,34.586064,-17068.038,-12695.051)"
     points="633.599,195.922 633.599,196.858 629.741,196.858 629.741,190.668 630.729,190.668 630.729,195.922 " />
  <path
     inkscape:connector-curvature="0"
     style="fill:#005cb9"
     id="path6131-4"
     clip-path="url(#SVGID_26_-1)"
     transform="matrix(34.586064,0,0,34.586064,-17068.038,-12695.051)"
     d="m 624.782,200.899 c -1.722,0 -3.124,-1.383 -3.124,-3.084 v -8.104 c 0,-1.701 1.402,-3.084 3.124,-3.084 h 8.211 c 1.722,0 3.123,1.383 3.123,3.084 v 8.104 c 0,1.701 -1.401,3.084 -3.123,3.084 z" />
  <path
     inkscape:connector-curvature="0"
     style="fill:#ffffff"
     id="path6133-0"
     clip-path="url(#SVGID_26_-1)"
     transform="matrix(34.586064,0,0,34.586064,-17068.038,-12695.051)"
     d="m 624.176,190.668 h 2.743 c 0.506,0 0.912,0.127 1.217,0.381 0.306,0.255 0.459,0.639 0.459,1.153 0,0.313 -0.07,0.58 -0.21,0.802 -0.139,0.222 -0.338,0.394 -0.597,0.515 v 0.018 c 0.348,0.081 0.612,0.262 0.791,0.542 0.179,0.28 0.269,0.632 0.269,1.054 0,0.242 -0.04,0.47 -0.119,0.681 -0.079,0.21 -0.203,0.393 -0.371,0.546 -0.169,0.153 -0.385,0.274 -0.648,0.364 -0.264,0.09 -0.578,0.134 -0.941,0.134 h -2.593 z m 0.988,2.592 h 1.613 c 0.237,0 0.434,-0.074 0.593,-0.221 0.158,-0.147 0.237,-0.36 0.237,-0.638 0,-0.312 -0.072,-0.531 -0.214,-0.658 -0.142,-0.128 -0.348,-0.192 -0.616,-0.192 h -1.613 z m 0,2.714 h 1.747 c 0.3,0 0.534,-0.085 0.7,-0.256 0.166,-0.171 0.249,-0.412 0.249,-0.724 0,-0.307 -0.083,-0.542 -0.249,-0.707 -0.166,-0.165 -0.4,-0.248 -0.7,-0.248 h -1.747 z" />
  <polygon
     style="fill:#ffffff"
     id="polygon6135-9"
     clip-path="url(#SVGID_26_-1)"
     transform="matrix(34.586064,0,0,34.586064,-17068.038,-12695.051)"
     points="633.599,195.922 633.599,196.858 629.741,196.858 629.741,190.668 630.729,190.668 630.729,195.922 " />
  <path
     inkscape:connector-curvature="0"
     style="fill:#005cb9"
     id="path6131-5"
     clip-path="url(#SVGID_26_-4)"
     transform="matrix(34.586064,0,0,34.586064,-17068.038,-12695.051)"
     d="m 624.782,200.899 c -1.722,0 -3.124,-1.383 -3.124,-3.084 v -8.104 c 0,-1.701 1.402,-3.084 3.124,-3.084 h 8.211 c 1.722,0 3.123,1.383 3.123,3.084 v 8.104 c 0,1.701 -1.401,3.084 -3.123,3.084 z" />
  <path
     inkscape:connector-curvature="0"
     style="fill:#ffffff"
     id="path6133-1"
     clip-path="url(#SVGID_26_-4)"
     transform="matrix(34.586064,0,0,34.586064,-17068.038,-12695.051)"
     d="m 624.176,190.668 h 2.743 c 0.506,0 0.912,0.127 1.217,0.381 0.306,0.255 0.459,0.639 0.459,1.153 0,0.313 -0.07,0.58 -0.21,0.802 -0.139,0.222 -0.338,0.394 -0.597,0.515 v 0.018 c 0.348,0.081 0.612,0.262 0.791,0.542 0.179,0.28 0.269,0.632 0.269,1.054 0,0.242 -0.04,0.47 -0.119,0.681 -0.079,0.21 -0.203,0.393 -0.371,0.546 -0.169,0.153 -0.385,0.274 -0.648,0.364 -0.264,0.09 -0.578,0.134 -0.941,0.134 h -2.593 z m 0.988,2.592 h 1.613 c 0.237,0 0.434,-0.074 0.593,-0.221 0.158,-0.147 0.237,-0.36 0.237,-0.638 0,-0.312 -0.072,-0.531 -0.214,-0.658 -0.142,-0.128 -0.348,-0.192 -0.616,-0.192 h -1.613 z m 0,2.714 h 1.747 c 0.3,0 0.534,-0.085 0.7,-0.256 0.166,-0.171 0.249,-0.412 0.249,-0.724 0,-0.307 -0.083,-0.542 -0.249,-0.707 -0.166,-0.165 -0.4,-0.248 -0.7,-0.248 h -1.747 z" />
  <polygon
     style="fill:#ffffff"
     id="polygon6135-7"
     clip-path="url(#SVGID_26_-4)"
     transform="matrix(34.586064,0,0,34.586064,-17068.038,-12695.051)"
     points="633.599,195.922 633.599,196.858 629.741,196.858 629.741,190.668 630.729,190.668 630.729,195.922 " />
  <path
     inkscape:connector-curvature="0"
     style="fill:#005cb9"
     id="path6131-2"
     clip-path="url(#SVGID_26_-11)"
     transform="matrix(34.586064,0,0,34.586064,-17068.038,-12695.051)"
     d="m 624.782,200.899 c -1.722,0 -3.124,-1.383 -3.124,-3.084 v -8.104 c 0,-1.701 1.402,-3.084 3.124,-3.084 h 8.211 c 1.722,0 3.123,1.383 3.123,3.084 v 8.104 c 0,1.701 -1.401,3.084 -3.123,3.084 z" />
  <path
     inkscape:connector-curvature="0"
     style="fill:#ffffff"
     id="path6133-7"
     clip-path="url(#SVGID_26_-11)"
     transform="matrix(34.586064,0,0,34.586064,-17068.038,-12695.051)"
     d="m 624.176,190.668 h 2.743 c 0.506,0 0.912,0.127 1.217,0.381 0.306,0.255 0.459,0.639 0.459,1.153 0,0.313 -0.07,0.58 -0.21,0.802 -0.139,0.222 -0.338,0.394 -0.597,0.515 v 0.018 c 0.348,0.081 0.612,0.262 0.791,0.542 0.179,0.28 0.269,0.632 0.269,1.054 0,0.242 -0.04,0.47 -0.119,0.681 -0.079,0.21 -0.203,0.393 -0.371,0.546 -0.169,0.153 -0.385,0.274 -0.648,0.364 -0.264,0.09 -0.578,0.134 -0.941,0.134 h -2.593 z m 0.988,2.592 h 1.613 c 0.237,0 0.434,-0.074 0.593,-0.221 0.158,-0.147 0.237,-0.36 0.237,-0.638 0,-0.312 -0.072,-0.531 -0.214,-0.658 -0.142,-0.128 -0.348,-0.192 -0.616,-0.192 h -1.613 z m 0,2.714 h 1.747 c 0.3,0 0.534,-0.085 0.7,-0.256 0.166,-0.171 0.249,-0.412 0.249,-0.724 0,-0.307 -0.083,-0.542 -0.249,-0.707 -0.166,-0.165 -0.4,-0.248 -0.7,-0.248 h -1.747 z" />
  <polygon
     style="fill:#ffffff"
     id="polygon6135-6"
     clip-path="url(#SVGID_26_-11)"
     transform="matrix(34.586064,0,0,34.586064,-17068.038,-12695.051)"
     points="633.599,195.922 633.599,196.858 629.741,196.858 629.741,190.668 630.729,190.668 630.729,195.922 " />
  <g
     id="g877">
    <path
       inkscape:connector-curvature="0"
       style="fill:#0070bd;fill-opacity:1;fill-rule:nonzero;stroke:none;stroke-width:34.58606339"
       id="path3083"
       d="M 107.84357,493.87286 C 49.019939,493.87286 4.1873648e-4,446.07907 4.1873648e-4,387.25544 V 106.61789 C 4.1873648e-4,47.794608 49.019939,4.7205712e-4 107.84357,4.7205712e-4 h 284.3137 c 60.04902,0 107.84315,47.79413594288 107.84315,106.61741794288 v 280.63755 c 0,58.82363 -47.79413,106.61742 -107.84315,106.61742 z" />
    <path
       inkscape:connector-curvature="0"
       style="fill:#ffffff;fill-opacity:1;fill-rule:nonzero;stroke:none;stroke-width:34.58606339"
       id="path3085"
       d="m 87.010309,139.70638 h 95.588271 c 17.15676,0 30.63703,4.90188 41.66652,13.48027 11.0295,8.57838 15.93138,22.05899 15.93138,40.44113 0,9.80412 -2.45215,19.60788 -7.35299,26.96088 -4.90189,8.57838 -12.25488,13.48026 -20.83327,18.38249 v 0 c 12.25488,3.6765 20.83327,9.80377 26.96088,19.60788 6.12727,8.57838 9.80376,20.83326 9.80376,35.53891 0,8.57873 -1.22434,17.15711 -3.67649,24.51011 -3.6765,6.12726 -7.353,13.48026 -13.48027,18.38214 -6.12761,4.90189 -13.48026,9.80411 -22.05899,12.25488 -9.80377,3.6765 -19.60788,4.90189 -33.08814,4.90189 H 87.010309 Z m 34.313531,89.46066 h 56.37251 c 7.353,0 14.706,-2.45215 19.60788,-7.353 6.12761,-4.90188 8.57838,-12.25488 8.57838,-22.05864 0,-11.0295 -2.45215,-18.3825 -7.35265,-22.05899 -4.90223,-4.90189 -12.25488,-7.353 -20.83361,-7.353 h -56.37251 z m 0,94.36289 h 60.04901 c 11.0295,0 18.38249,-2.45215 24.50976,-8.57838 6.12761,-6.12762 8.57873,-14.706 8.57873,-25.73549 0,-9.80377 -2.45215,-18.38215 -8.57873,-24.50976 -6.12727,-4.90189 -13.48026,-8.57839 -24.50976,-8.57839 h -60.04901 z" />
    <path
       inkscape:connector-curvature="0"
       style="fill:#ffffff;fill-opacity:1;fill-rule:nonzero;stroke:none;stroke-width:34.58606339"
       id="path3087"
       d="M 279.41224,354.16696 V 139.70638 h 34.31352 V 322.3042 h 99.26477 v 31.86276 z" />
  </g>
</svg>
