<?xml version="1.0" encoding="UTF-8" standalone="no"?>
<!-- Created with Inkscape (http://www.inkscape.org/) -->

<svg
   xmlns:dc="http://purl.org/dc/elements/1.1/"
   xmlns:cc="http://creativecommons.org/ns#"
   xmlns:rdf="http://www.w3.org/1999/02/22-rdf-syntax-ns#"
   xmlns:svg="http://www.w3.org/2000/svg"
   xmlns="http://www.w3.org/2000/svg"
   xmlns:xlink="http://www.w3.org/1999/xlink"
   xmlns:sodipodi="http://sodipodi.sourceforge.net/DTD/sodipodi-0.dtd"
   xmlns:inkscape="http://www.inkscape.org/namespaces/inkscape"
   version="1.1"
   width="500"
   height="493.87262"
   id="svg2"
   inkscape:version="0.92.2 (5c3e80d, 2017-08-06)"
   sodipodi:docname="Taipei_Metro_Line_R.svg">
  <sodipodi:namedview
     pagecolor="#ffffff"
     bordercolor="#666666"
     borderopacity="1"
     objecttolerance="10"
     gridtolerance="10"
     guidetolerance="10"
     inkscape:pageopacity="0"
     inkscape:pageshadow="2"
     inkscape:window-width="1366"
     inkscape:window-height="706"
     id="namedview47"
     showgrid="false"
     fit-margin-top="0"
     fit-margin-left="0"
     fit-margin-right="0"
     fit-margin-bottom="0"
     inkscape:zoom="0.33789518"
     inkscape:cx="418.19409"
     inkscape:cy="362.62708"
     inkscape:window-x="-8"
     inkscape:window-y="-8"
     inkscape:window-maximized="1"
     inkscape:current-layer="svg2" />
  <defs
     id="defs4">
    <clipPath
       id="SVGID_26_">
      <use
         id="use5467"
         style="overflow:visible"
         x="0"
         y="0"
         width="1700.79"
         height="2381.1001"
         xlink:href="#SVGID_25_" />
    </clipPath>
    <clipPath
       id="clipPath6312">
      <use
         id="use6314"
         style="overflow:visible"
         x="0"
         y="0"
         width="1700.79"
         height="2381.1001"
         xlink:href="#SVGID_25_" />
    </clipPath>
    <clipPath
       id="clipPath6316">
      <use
         id="use6318"
         style="overflow:visible"
         x="0"
         y="0"
         width="1700.79"
         height="2381.1001"
         xlink:href="#SVGID_25_" />
    </clipPath>
    <clipPath
       id="SVGID_26_-1">
      <use
         id="use5467-7"
         style="overflow:visible"
         x="0"
         y="0"
         width="1700.79"
         height="2381.1001"
         xlink:href="#SVGID_25_" />
    </clipPath>
    <clipPath
       id="clipPath6335">
      <use
         id="use6337"
         style="overflow:visible"
         x="0"
         y="0"
         width="1700.79"
         height="2381.1001"
         xlink:href="#SVGID_25_" />
    </clipPath>
    <clipPath
       id="clipPath6339">
      <use
         id="use6341"
         style="overflow:visible"
         x="0"
         y="0"
         width="1700.79"
         height="2381.1001"
         xlink:href="#SVGID_25_" />
    </clipPath>
    <clipPath
       id="SVGID_26_-4">
      <use
         id="use5467-8"
         style="overflow:visible"
         x="0"
         y="0"
         width="1700.79"
         height="2381.1001"
         xlink:href="#SVGID_25_" />
    </clipPath>
    <clipPath
       id="clipPath6335-8">
      <use
         id="use6337-2"
         style="overflow:visible"
         x="0"
         y="0"
         width="1700.79"
         height="2381.1001"
         xlink:href="#SVGID_25_" />
    </clipPath>
    <clipPath
       id="clipPath6339-4">
      <use
         id="use6341-5"
         style="overflow:visible"
         x="0"
         y="0"
         width="1700.79"
         height="2381.1001"
         xlink:href="#SVGID_25_" />
    </clipPath>
    <clipPath
       id="SVGID_26_-11">
      <use
         id="use5467-5"
         style="overflow:visible"
         x="0"
         y="0"
         width="1700.79"
         height="2381.1001"
         xlink:href="#SVGID_25_" />
    </clipPath>
    <clipPath
       id="clipPath6358">
      <use
         id="use6360"
         style="overflow:visible"
         x="0"
         y="0"
         width="1700.79"
         height="2381.1001"
         xlink:href="#SVGID_25_" />
    </clipPath>
    <clipPath
       id="clipPath6362">
      <use
         id="use6364"
         style="overflow:visible"
         x="0"
         y="0"
         width="1700.79"
         height="2381.1001"
         xlink:href="#SVGID_25_" />
    </clipPath>
    <clipPath
       id="SVGID_26_-17">
      <use
         id="use5467-4"
         style="overflow:visible"
         x="0"
         y="0"
         width="1700.79"
         height="2381.1001"
         xlink:href="#SVGID_25_" />
    </clipPath>
    <clipPath
       id="clipPath6404">
      <use
         id="use6406"
         style="overflow:visible"
         x="0"
         y="0"
         width="1700.79"
         height="2381.1001"
         xlink:href="#SVGID_25_" />
    </clipPath>
    <clipPath
       id="clipPath6408">
      <use
         id="use6410"
         style="overflow:visible"
         x="0"
         y="0"
         width="1700.79"
         height="2381.1001"
         xlink:href="#SVGID_25_" />
    </clipPath>
    <clipPath
       id="SVGID_26_-174">
      <use
         id="use5467-0"
         style="overflow:visible"
         x="0"
         y="0"
         width="1700.79"
         height="2381.1001"
         xlink:href="#SVGID_25_" />
    </clipPath>
    <clipPath
       id="clipPath6468">
      <use
         id="use6470"
         style="overflow:visible"
         x="0"
         y="0"
         width="1700.79"
         height="2381.1001"
         xlink:href="#SVGID_25_" />
    </clipPath>
  </defs>
  <metadata
     id="metadata7">
    <rdf:RDF>
      <cc:Work
         rdf:about="">
        <dc:format>image/svg+xml</dc:format>
        <dc:type
           rdf:resource="http://purl.org/dc/dcmitype/StillImage" />
        <dc:title />
      </cc:Work>
    </rdf:RDF>
  </metadata>
  <path
     d="m 624.782,71.001 c -1.722,0 -3.124,-1.383 -3.124,-3.083 v -8.104 c 0,-1.701 1.402,-3.084 3.124,-3.084 h 8.211 c 1.722,0 3.123,1.383 3.123,3.084 v 8.104 c 0,1.701 -1.401,3.083 -3.123,3.083 h -8.211 z"
     transform="translate(-747.38085,413.13892)"
     clip-path="url(#SVGID_26_-17)"
     id="path5819"
     style="fill:#a1662c"
     inkscape:connector-curvature="0" />
  <path
     d="m 623.717,60.771 h 2.743 c 0.506,0 0.912,0.126 1.217,0.381 0.306,0.255 0.459,0.639 0.459,1.153 0,0.312 -0.07,0.579 -0.21,0.803 -0.139,0.222 -0.338,0.394 -0.597,0.515 v 0.018 c 0.348,0.081 0.612,0.262 0.791,0.542 0.179,0.28 0.269,0.631 0.269,1.053 0,0.243 -0.04,0.47 -0.119,0.681 -0.079,0.21 -0.203,0.393 -0.371,0.545 -0.169,0.153 -0.385,0.274 -0.648,0.364 -0.264,0.09 -0.578,0.135 -0.941,0.135 h -2.593 v -6.19 z m 0.988,2.592 h 1.613 c 0.237,0 0.434,-0.074 0.593,-0.221 0.158,-0.148 0.237,-0.36 0.237,-0.638 0,-0.312 -0.071,-0.531 -0.214,-0.658 -0.142,-0.127 -0.348,-0.191 -0.616,-0.191 h -1.613 v 1.708 z m 0,2.714 h 1.747 c 0.3,0 0.534,-0.085 0.7,-0.256 0.166,-0.17 0.249,-0.411 0.249,-0.723 0,-0.307 -0.083,-0.543 -0.249,-0.707 -0.166,-0.165 -0.4,-0.248 -0.7,-0.248 h -1.747 v 1.934 z"
     transform="translate(-747.38085,413.13892)"
     clip-path="url(#SVGID_26_-17)"
     id="path5821"
     style="fill:#ffffff"
     inkscape:connector-curvature="0" />
  <path
     d="m 629.282,60.77 h 2.695 c 0.622,0 1.089,0.148 1.4,0.442 0.31,0.295 0.466,0.706 0.466,1.232 0,0.294 -0.04,0.539 -0.118,0.732 -0.08,0.193 -0.172,0.349 -0.277,0.468 -0.106,0.119 -0.21,0.205 -0.313,0.255 -0.103,0.053 -0.177,0.087 -0.225,0.104 v 0.018 c 0.084,0.012 0.175,0.041 0.273,0.087 0.097,0.046 0.188,0.121 0.273,0.221 0.084,0.101 0.154,0.233 0.209,0.395 0.055,0.162 0.083,0.364 0.083,0.606 0,0.364 0.025,0.696 0.075,0.993 0.05,0.298 0.128,0.51 0.233,0.638 h -1.059 c -0.074,-0.134 -0.117,-0.28 -0.13,-0.442 -0.014,-0.162 -0.02,-0.318 -0.02,-0.469 0,-0.282 -0.016,-0.527 -0.047,-0.732 -0.032,-0.206 -0.09,-0.375 -0.174,-0.512 -0.085,-0.136 -0.199,-0.236 -0.344,-0.299 -0.145,-0.063 -0.331,-0.096 -0.558,-0.096 h -1.454 v 2.55 h -0.988 V 60.77 z m 0.989,2.818 h 1.62 c 0.317,0 0.556,-0.082 0.72,-0.247 0.163,-0.165 0.245,-0.412 0.245,-0.741 0,-0.196 -0.027,-0.357 -0.079,-0.481 -0.053,-0.125 -0.125,-0.221 -0.218,-0.29 -0.092,-0.069 -0.197,-0.116 -0.316,-0.14 -0.118,-0.022 -0.241,-0.034 -0.367,-0.034 h -1.605 v 1.933 z"
     transform="translate(-747.38085,413.13892)"
     clip-path="url(#SVGID_26_-17)"
     id="path5823"
     style="fill:#ffffff"
     inkscape:connector-curvature="0" />
  <path
     d="m 624.782,103.561 c -1.722,0 -3.124,-1.383 -3.124,-3.084 v -8.104 c 0,-1.701 1.402,-3.084 3.124,-3.084 h 8.211 c 1.722,0 3.123,1.383 3.123,3.084 v 8.104 c 0,1.701 -1.401,3.084 -3.123,3.084 h -8.211 z"
     transform="translate(-626.28543,381.14132)"
     clip-path="url(#SVGID_26_-174)"
     id="path5867"
     style="fill:#d12a2f"
     inkscape:connector-curvature="0" />
  <path
     d="m 626.355,93.471 h 2.859 c 0.66,0 1.154,0.141 1.484,0.422 0.33,0.281 0.495,0.673 0.495,1.175 0,0.282 -0.042,0.515 -0.126,0.7 -0.084,0.185 -0.182,0.333 -0.294,0.447 -0.111,0.113 -0.222,0.194 -0.331,0.244 -0.109,0.05 -0.188,0.083 -0.239,0.1 v 0.016 c 0.09,0.012 0.186,0.04 0.29,0.083 0.103,0.045 0.199,0.115 0.289,0.211 0.089,0.097 0.163,0.222 0.222,0.376 0.059,0.155 0.088,0.348 0.088,0.579 0,0.348 0.027,0.663 0.08,0.948 0.053,0.284 0.135,0.488 0.247,0.608 h -1.123 c -0.079,-0.126 -0.125,-0.268 -0.139,-0.421 -0.014,-0.154 -0.021,-0.303 -0.021,-0.447 0,-0.271 -0.017,-0.503 -0.05,-0.699 -0.034,-0.196 -0.095,-0.358 -0.184,-0.489 -0.09,-0.129 -0.211,-0.225 -0.365,-0.285 -0.154,-0.061 -0.351,-0.091 -0.591,-0.091 h -1.543 v 2.432 h -1.048 v -5.909 z m 1.048,2.69 h 1.719 c 0.335,0 0.59,-0.079 0.763,-0.236 0.173,-0.157 0.26,-0.393 0.26,-0.708 0,-0.188 -0.028,-0.34 -0.084,-0.459 -0.056,-0.119 -0.133,-0.211 -0.231,-0.277 -0.098,-0.066 -0.209,-0.111 -0.335,-0.132 -0.126,-0.021 -0.256,-0.033 -0.39,-0.033 h -1.702 v 1.845 z"
     transform="translate(-626.28543,381.14132)"
     clip-path="url(#SVGID_26_-174)"
     id="path5869"
     style="fill:#ffffff"
     inkscape:connector-curvature="0" />
  <g
     id="g860">
    <path
       d="M 107.84357,493.87261 C 49.019939,493.87261 4.1873648e-4,446.07847 4.1873648e-4,387.25495 V 106.61764 C 4.1873648e-4,47.794112 49.019939,-2.3916224e-5 107.84357,-2.3916224e-5 h 284.3137 c 60.04902,0 107.84315,47.794135916224 107.84315,106.617663916224 v 280.63731 c 0,58.82352 -47.79413,106.61766 -107.84315,106.61766 z"
       id="path3073"
       style="fill:#e3002c;fill-opacity:1;fill-rule:nonzero;stroke:none;stroke-width:34.58606339"
       inkscape:connector-curvature="0" />
    <path
       d="m 162.9907,144.60784 h 98.03904 c 23.28438,0 40.44114,4.90195 51.47064,14.70589 11.02949,9.80394 17.15676,23.2843 17.15676,40.44117 0,9.80394 -1.22434,18.38236 -3.67615,24.50983 -3.6765,6.12744 -7.353,11.02939 -11.0295,15.93138 -3.6765,3.67646 -7.35299,6.12744 -11.02949,8.57842 -3.6765,1.22538 -6.12762,2.45111 -8.57838,2.45111 v 1.22538 c 3.67649,0 6.12726,1.22539 9.80376,2.45112 3.6765,1.22538 7.353,3.6765 11.0295,7.35296 2.45215,3.67647 4.90188,7.35293 7.35299,13.4804 1.22435,4.90196 2.45216,12.25488 2.45216,19.60785 0,12.25488 1.22434,23.2843 3.67615,33.08824 1.22435,9.80391 3.6765,17.15687 8.57873,20.83333 h -39.21576 c -2.45215,-4.90195 -4.90188,-9.80394 -4.90188,-14.70589 0,-4.90195 -1.22435,-9.80394 -1.22435,-15.93138 0,-8.57841 0,-17.15686 -1.22434,-23.2843 -1.22435,-7.35297 -3.6765,-12.25492 -6.12762,-17.15687 -3.6765,-4.90199 -7.35265,-7.35296 -13.48026,-9.80394 -4.90188,-2.45111 -11.0295,-3.67646 -19.60788,-3.67646 h -53.9214 v 84.55884 H 162.99416 V 144.60801 Z m 35.53926,93.13726 h 60.04902 c 11.02915,0 19.60787,-2.45112 25.73514,-8.57842 6.12761,-4.90195 9.80411,-13.4804 9.80411,-24.50979 0,-6.12748 -1.22434,-11.02943 -3.6765,-14.70589 -1.22434,-4.90199 -4.90223,-7.35297 -7.35299,-9.80394 -3.6765,-2.45112 -7.353,-3.67647 -12.25488,-4.90195 -3.6765,-1.22539 -8.57839,-1.22539 -13.48061,-1.22539 h -58.82329 v 63.72548 z"
       id="path3075"
       style="fill:#ffffff;fill-opacity:1;fill-rule:nonzero;stroke:none;stroke-width:34.58606339"
       inkscape:connector-curvature="0" />
  </g>
</svg>
